<svg width="32" height="32" viewBox="0 0 32 32" fill="none" xmlns="http://www.w3.org/2000/svg">
<path d="M3.99998 15.98C3.92697 19.441 5.22882 22.7899 7.62031 25.2928C10.0118 27.7958 13.2979 29.2487 16.7586 29.3333C19.0409 29.3079 21.2742 28.668 23.2237 27.4811C25.1732 26.2941 26.7669 24.6039 27.8373 22.588C27.952 22.378 28.0081 22.1411 27.9997 21.902C27.9913 21.6629 27.9188 21.4305 27.7896 21.2291C27.6605 21.0277 27.4796 20.8648 27.2658 20.7574C27.052 20.65 26.8133 20.6021 26.5746 20.6187L26.428 20.6293C26.2533 20.6427 26.0773 20.656 25.8946 20.656C23.1411 20.5716 20.5331 19.3997 18.6417 17.3968C16.7502 15.3939 15.7294 12.7232 15.8026 9.96933C15.8024 8.1064 16.2681 6.273 17.1573 4.63599C17.2719 4.42625 17.3279 4.18958 17.3196 3.95074C17.3113 3.7119 17.239 3.47969 17.1102 3.27838C16.9814 3.07708 16.8009 2.91409 16.5875 2.80648C16.3741 2.69886 16.1358 2.65057 15.8973 2.66666C12.6019 2.9792 9.54585 4.524 7.34013 6.99225C5.1344 9.46049 3.94153 12.6703 3.99998 15.98ZM13.7906 5.77733C13.3597 7.13293 13.1402 8.54686 13.14 9.96933C13.0874 13.1326 14.1738 16.2093 16.201 18.6381C18.2282 21.067 21.061 22.6861 24.1826 23.2C23.2658 24.2759 22.1284 25.1423 20.8475 25.7404C19.5666 26.3385 18.1722 26.6544 16.7586 26.6667C14.0051 26.5823 11.3971 25.4104 9.5057 23.4075C7.61425 21.4046 6.59341 18.7339 6.66665 15.98C6.6355 13.7474 7.30642 11.5615 8.5847 9.73077C9.86297 7.90009 11.684 6.51719 13.7906 5.77733Z" fill="black"/>
</svg>
