<svg width="32" height="32" viewBox="0 0 32 32" fill="none" xmlns="http://www.w3.org/2000/svg">
<g clip-path="url(#clip0_12_57)">
<path d="M14.4 5.33333H30.4C30.8243 5.33333 31.2314 5.05237 31.5314 4.55229C31.8314 4.05219 32 3.37392 32 2.66667C32 1.95942 31.8314 1.28114 31.5314 0.781045C31.2314 0.280949 30.8243 0 30.4 0H14.4C13.9756 0 13.5687 0.280949 13.2686 0.781045C12.9686 1.28114 12.8 1.95942 12.8 2.66667C12.8 3.37392 12.9686 4.05219 13.2686 4.55229C13.5687 5.05237 13.9756 5.33333 14.4 5.33333ZM30.4 26.6667H1.6C1.17565 26.6667 0.768686 26.9477 0.468627 27.4477C0.16857 27.9477 0 28.6261 0 29.3333C0 30.0405 0.16857 30.7189 0.468627 31.2189C0.768686 31.7189 1.17565 32 1.6 32H30.4C30.8243 32 31.2314 31.7189 31.5314 31.2189C31.8314 30.7189 32 30.0405 32 29.3333C32 28.6261 31.8314 27.9477 31.5314 27.4477C31.2314 26.9477 30.8243 26.6667 30.4 26.6667ZM1.6 18.6667H30.4C30.8243 18.6667 31.2314 18.3857 31.5314 17.8856C31.8314 17.3855 32 16.7073 32 16C32 15.2927 31.8314 14.6145 31.5314 14.1144C31.2314 13.6143 30.8243 13.3333 30.4 13.3333H1.6C1.17565 13.3333 0.768686 13.6143 0.468627 14.1144C0.16857 14.6145 0 15.2927 0 16C0 16.7073 0.16857 17.3855 0.468627 17.8856C0.768686 18.3857 1.17565 18.6667 1.6 18.6667Z" fill="white"/>
</g>
<defs>
<clipPath id="clip0_12_57">
<rect width="32" height="32" fill="white"/>
</clipPath>
</defs>
</svg>
